<svg xmlns="http://www.w3.org/2000/svg" viewBox="0 0 32 32">
  <defs>
    <linearGradient id="g" x1="0" y1="0" x2="1" y2="1">
      <stop offset="0%" stop-color="#0F4C81"/>
      <stop offset="100%" stop-color="#1E88E5"/>
    </linearGradient>
  </defs>
  <rect width="32" height="32" rx="9" fill="url(#g)"/>
  <path d="M16 9c-2.6 0-4.6 1.7-4.6 4.2 0 1.6.7 2.6.7 4.1 0 1.9-.9 3.2-.9 4.6 0 1 .6 1.7 1.5 1.7 1.6 0 1.6-3.4 3.3-3.4s1.7 3.4 3.3 3.4c.9 0 1.5-.7 1.5-1.7 0-1.4-.9-2.7-.9-4.6 0-1.5.7-2.5.7-4.1 0-2.5-2-4.2-4.6-4.2z" fill="#fff"/>
</svg>
